<?xml version="1.0" standalone="no"?>
<!DOCTYPE svg PUBLIC "-//W3C//DTD SVG 20010904//EN"
 "http://www.w3.org/TR/2001/REC-SVG-20010904/DTD/svg10.dtd">
<svg version="1.0" xmlns="http://www.w3.org/2000/svg"
 width="299.000000pt" height="65.000000pt" viewBox="0 0 299.000000 65.000000"
 preserveAspectRatio="xMidYMid meet">

<g transform="translate(0.000000,65.000000) scale(0.100000,-0.100000)"
fill="#1874CD" stroke="none">
<path d="M1610 635 c-25 -8 -108 -28 -186 -44 -77 -17 -148 -33 -157 -37 -19
-7 -22 3 -7 26 10 17 -14 50 -37 50 -16 0 -63 -72 -123 -187 l-42 -83 -49 0
c-35 0 -51 -4 -56 -15 -7 -20 24 -55 49 -55 22 0 22 5 -2 -65 -22 -63 -26
-126 -10 -155 19 -36 117 -47 172 -18 31 15 9 37 -40 40 l-47 3 3 43 c1 23 12
67 23 97 l20 55 50 0 c56 0 69 15 51 56 -8 16 -20 24 -37 24 -14 0 -25 2 -25
5 0 5 60 127 65 133 2 2 12 -2 23 -9 16 -10 34 -10 83 -1 35 6 64 10 66 9 2
-3 -82 -284 -129 -431 -11 -35 -10 -40 7 -53 11 -7 31 -13 45 -11 28 3 33 17
101 273 22 83 48 161 58 175 24 33 102 75 179 96 69 19 76 31 37 69 -28 29
-25 28 -85 10z"/>
<path d="M262 606 c-18 -31 -24 -34 -88 -40 -89 -9 -99 -15 -83 -49 11 -23 18
-27 56 -27 23 0 43 -3 43 -7 0 -5 -10 -26 -23 -47 -19 -34 -30 -42 -81 -57
-74 -22 -92 -39 -77 -68 13 -23 27 -26 67 -11 32 12 33 19 -25 -132 -52 -137
-54 -149 -18 -162 18 -7 33 -7 44 0 8 5 34 66 58 134 66 196 52 180 162 180
82 0 93 2 93 18 0 10 -7 28 -16 40 -12 18 -25 22 -71 22 l-55 0 7 28 c16 65
27 72 126 72 100 0 115 10 88 59 -14 24 -20 26 -77 24 -49 -1 -60 1 -55 13 7
19 -14 44 -37 44 -10 0 -27 -15 -38 -34z"/>
<path d="M2906 590 c-14 -22 -49 -83 -77 -135 l-51 -95 -48 0 c-27 0 -52 -5
-55 -10 -10 -17 23 -60 45 -60 24 0 24 -1 0 -70 -25 -72 -26 -130 -1 -157 26
-28 86 -37 136 -21 57 19 53 42 -7 46 -28 2 -48 8 -49 15 -3 30 4 67 22 125
l21 62 49 0 c56 0 69 15 51 56 -8 16 -20 24 -37 24 -14 0 -25 3 -25 8 0 4 25
54 55 111 43 82 52 107 44 122 -16 30 -44 22 -73 -21z"/>
<path d="M2162 553 c-40 -78 -143 -344 -156 -404 -18 -74 -9 -105 36 -124 49
-20 76 -2 120 80 l21 40 23 -52 c15 -35 34 -59 56 -73 37 -22 46 -24 68 -10
12 8 10 15 -17 42 -33 35 -63 118 -63 174 0 24 15 53 60 112 33 44 60 85 60
91 0 17 -47 43 -68 37 -18 -6 -81 -88 -131 -169 -13 -21 -25 -36 -27 -34 -3 2
19 71 47 152 48 140 50 149 33 162 -29 21 -42 15 -62 -24z"/>
<path d="M1660 495 c-21 -44 -22 -47 -5 -65 27 -29 42 -25 65 19 21 43 18 66
-11 81 -25 14 -25 14 -49 -35z"/>
<path d="M840 402 c-47 -46 -59 -96 -40 -162 24 -84 24 -110 0 -142 -21 -28
-21 -30 -4 -49 25 -27 70 -25 90 6 19 29 15 80 -11 167 l-18 56 27 47 c20 33
35 47 57 52 33 6 37 23 11 46 -31 28 -70 21 -112 -21z"/>
<path d="M2515 388 c-84 -46 -155 -187 -134 -262 19 -65 85 -102 156 -86 45
11 66 35 53 61 -15 26 -45 32 -79 15 -44 -23 -51 -20 -51 24 0 38 2 40 31 40
84 0 162 43 175 97 19 75 -82 149 -151 111z m75 -71 c0 -29 -81 -89 -98 -73
-7 7 73 86 87 86 6 0 11 -6 11 -13z"/>
<path d="M1615 356 c-26 -39 -83 -188 -91 -233 -5 -36 -3 -45 20 -68 42 -42
58 -31 73 50 7 39 25 110 40 159 26 86 26 89 8 102 -26 19 -32 18 -50 -10z"/>
<path d="M565 351 c-74 -35 -149 -134 -162 -213 -10 -65 45 -128 112 -128 16
0 42 15 69 40 l44 41 26 -26 c43 -43 59 -31 71 55 7 41 20 105 30 142 21 76
18 85 -35 94 -89 15 -116 14 -155 -5z m115 -47 c0 -4 -21 -36 -47 -73 -94
-131 -163 -189 -147 -123 16 64 69 141 123 178 33 22 71 32 71 18z"/>
<path d="M1814 351 c-103 -63 -167 -227 -114 -293 55 -71 128 -56 229 46 68
69 73 88 25 106 -24 9 -32 4 -101 -60 -41 -38 -80 -70 -85 -70 -16 0 0 70 27
115 13 22 39 55 59 74 34 33 37 34 54 18 27 -25 42 -21 42 12 0 21 -8 36 -29
50 -36 26 -67 26 -107 2z"/>
</g>
</svg>
